<svg xmlns="http://www.w3.org/2000/svg" version="1.1" xmlns:xlink="http://www.w3.org/1999/xlink" width="512" height="512" x="0" y="0" viewBox="0 0 512 512" style="enable-background:new 0 0 512 512" xml:space="preserve" class=""><g><path fill="#ffee80" d="m451.891 163.426 28.312 21.819-11.11 38.954 22.824 33.463-22.604 33.612 11.367 38.88-31.917 24.938-1.324 40.483-38.104 13.76-13.761 38.105-40.482 1.323-24.937 31.917-38.88-11.367-33.613 22.605-33.463-22.825-38.954 11.11-21.937-28.465-111.624-89.47.589-41.677-27.459-29.423 17.37-36.306-17.121-36.425 27.66-29.233-5.076-39.926 35.346-19.247 7.5-39.538 39.538-7.499 19.247-35.347 39.926 5.077 29.233-27.66 36.425 17.12 36.306-17.369 29.422 27.459 39.89 1.198z" opacity="1" data-original="#ffee80"></path><circle cx="256" cy="256" r="164.781" fill="#ff7d97" opacity="1" data-original="#ff7d97"></circle><path fill="#80b6ff" d="m11.515 404.805 97.707 97.707 160.739-160.74 71.811-71.81 160.74-160.74-97.708-97.707z" opacity="1" data-original="#80b6ff"></path><circle cx="305.867" cy="305.867" r="10" fill="#000000" opacity="1" data-original="#000000" class=""></circle><path d="m509.062 101.588-98.65-98.65a10.028 10.028 0 0 0-14.184 0l-40.361 40.361-31.193-.937-26.662-24.88a10.033 10.033 0 0 0-11.172-1.714l-32.013 15.316-32.119-15.095a10.034 10.034 0 0 0-11.16 1.792l-25.786 24.397-35.217-4.48a10.013 10.013 0 0 0-10.075 5.154l-16.974 31.176-34.868 6.614a10.032 10.032 0 0 0-7.985 7.986l-6.614 34.868-31.176 16.975a10.03 10.03 0 0 0-5.154 10.072l4.472 35.218-24.397 25.787a10.03 10.03 0 0 0-1.791 11.161l15.103 32.119-15.315 32.011a10.029 10.029 0 0 0 1.715 11.171l24.705 26.476-.47 32.961-38.783 38.781a10.032 10.032 0 0 0 0 14.186l98.649 98.649c1.959 1.958 4.526 2.938 7.093 2.938s5.134-.98 7.092-2.938l44.644-44.644 16.883 21.908a10.021 10.021 0 0 0 10.696 3.522l34.435-9.822 29.58 20.177a10.016 10.016 0 0 0 5.652 1.745 10.02 10.02 0 0 0 5.597-1.707l29.712-19.982 34.368 10.049a10.04 10.04 0 0 0 10.718-3.452l22.05-28.222 35.794-1.17a10.028 10.028 0 0 0 9.106-6.619l12.162-33.677 33.676-12.162a10.03 10.03 0 0 0 6.618-9.106l1.17-35.794 28.222-22.051a10.03 10.03 0 0 0 3.452-10.719l-10.048-34.368 19.982-29.712a10.032 10.032 0 0 0-.037-11.249l-20.176-29.579 9.821-34.435a10.031 10.031 0 0 0-3.523-10.696l-21.907-16.883 44.644-44.644c3.916-3.915 3.916-10.266-.001-14.183zM59.61 313.748l-22.792-24.425 14.416-30.133c1.3-2.715 1.31-5.872.029-8.596l-14.216-30.233 22.957-24.266a10.027 10.027 0 0 0 2.664-8.156l-4.207-33.13 29.332-15.971a10.029 10.029 0 0 0 5.058-6.94l6.226-32.823 32.824-6.226a10.03 10.03 0 0 0 6.94-5.059l15.969-29.33 33.129 4.215a10.02 10.02 0 0 0 8.159-2.664l24.266-22.958 30.233 14.209a10.025 10.025 0 0 0 8.595-.03l30.133-14.416 24.425 22.792a10.03 10.03 0 0 0 6.542 2.692l16.09.483-23.837 23.837c-29.917-9.545-61.817-11.102-92.66-4.468-33.776 7.263-64.598 24.071-89.133 48.606-24.535 24.53-41.342 55.351-48.604 89.131-6.631 30.844-5.075 62.744 4.465 92.663l-24.541 24.541.233-16.358a10.024 10.024 0 0 0-2.695-6.987zm43.252-17.445a160.173 160.173 0 0 1-1.102-72.197c6.449-29.995 21.378-57.369 43.176-79.162 21.799-21.8 49.174-36.731 79.166-43.181a160.107 160.107 0 0 1 72.195 1.104zm365.829-107.267-9.244 32.413a10.031 10.031 0 0 0 1.36 8.402l18.997 27.85-18.813 27.976a10.029 10.029 0 0 0-1.304 8.412l9.458 32.349-26.557 20.75a10.03 10.03 0 0 0-3.849 7.576l-1.101 33.686-31.709 11.45a10.03 10.03 0 0 0-6.027 6.027l-11.451 31.709-33.686 1.101a10.033 10.033 0 0 0-7.576 3.849l-20.749 26.556-32.35-9.458a10.04 10.04 0 0 0-8.412 1.305l-27.975 18.813-27.85-18.997a10.027 10.027 0 0 0-8.403-1.36l-32.412 9.245-14.316-18.577 22.936-22.937a179.47 179.47 0 0 0 60.081 10.366c46.822 0 92.795-18.303 127.149-52.657 49.144-49.144 65.435-122.059 42.295-187.233l22.933-22.933zM330 266.331c-3.917 3.917-3.917 10.268 0 14.185 3.918 3.917 10.269 3.917 14.185 0l67.041-66.907c15.974 55.454.826 115.742-40.524 157.092-41.35 41.351-101.638 56.5-157.092 40.525l66.832-66.832c3.917-3.917 3.918-10.268 0-14.185-3.917-3.914-10.267-3.916-14.185 0L108.68 487.786l-84.465-84.465L403.32 24.215l84.465 84.465z" fill="#000000" opacity="1" data-original="#000000" class=""></path><path d="m416.645 132.475-54.953-24.84a11.285 11.285 0 0 0-12.647 2.334 11.288 11.288 0 0 0-2.332 12.607l24.7 55.09a10.032 10.032 0 0 0 9.158 5.93 9.991 9.991 0 0 0 4.098-.881c5.055-2.267 7.315-8.201 5.049-13.256l-15.263-34.041 33.926 15.336c5.048 2.286 10.99.039 13.271-5.008 2.283-5.047.04-10.99-5.007-13.271zM323.765 149.297c-3.955-3.882-10.305-3.82-14.184.137-3.879 3.954-3.818 10.304.137 14.183l18.196 17.848-37.268-6.821a10.03 10.03 0 0 0-8.897 16.959l40.389 40.388c1.959 1.958 4.525 2.938 7.092 2.938s5.134-.98 7.093-2.938c3.917-3.917 3.917-10.268 0-14.185l-17.637-17.636 35.215 6.445c4.817.868 9.524-1.332 11.701-5.489 2.244-4.286 1.346-9.404-2.357-13.106zM387.721 71.293c-3.917 3.917-3.917 10.268 0 14.185l40.431 40.43a10.018 10.018 0 0 0 7.095 2.938c2.015 0 4.041-.605 5.788-1.84.88-.623 1.244-.88 15.51-15.307 3.895-3.939 3.86-10.29-.079-14.184-3.939-3.896-10.29-3.858-14.184.079-2.351 2.377-4.82 4.866-7.008 7.066l-33.367-33.367c-3.918-3.917-10.269-3.917-14.186 0zM185.694 287.504c-3.917-3.916-10.268-3.916-14.185 0-3.917 3.917-3.917 10.268 0 14.185l40.464 40.465c1.959 1.958 4.526 2.938 7.093 2.938s5.134-.979 7.093-2.938c3.917-3.917 3.917-10.268 0-14.185zM296.276 257.852c1.959 1.958 4.525 2.938 7.092 2.938s5.134-.979 7.093-2.938c3.917-3.917 3.917-10.268 0-14.185l-40.465-40.464c-3.917-3.916-10.268-3.916-14.185 0-3.917 3.917-3.917 10.268 0 14.185zM267.541 246.122c-3.917-3.916-10.268-3.916-14.185 0l-12.105 12.105c-3.917 3.917-3.917 10.268 0 14.185 3.917 3.916 10.268 3.916 14.185 0l3.685-3.685c.588 1.47.965 2.94 1.115 4.377.42 4.023-.926 7.528-4.113 10.715-7.245 7.247-19.035 7.247-26.28 0a18.459 18.459 0 0 1-5.442-13.139c0-4.964 1.933-9.631 5.443-13.14a18.472 18.472 0 0 1 9.583-5.102c5.438-1.053 8.993-6.316 7.939-11.754-1.053-5.438-6.316-8.985-11.755-7.94a38.475 38.475 0 0 0-19.953 10.611c-7.298 7.299-11.318 17.003-11.318 27.325s4.019 20.026 11.318 27.324c7.535 7.534 17.428 11.301 27.325 11.3 9.895 0 19.792-3.767 27.324-11.3 7.413-7.413 10.923-16.995 9.881-26.982-.92-8.82-5.412-17.664-12.647-24.9zM194.798 349.958l-17.862-1.139a26.079 26.079 0 0 0 1.438-7.752c.216-6.922-2.295-13.364-7.071-18.139-4.776-4.776-11.222-7.289-18.139-7.071-6.661.208-12.938 2.93-17.673 7.666l-10.753 10.753-.004.004-.009.008c-3.917 3.917-3.917 10.268 0 14.185l40.465 40.465c1.959 1.958 4.525 2.938 7.092 2.938s5.134-.979 7.093-2.938c3.917-3.917 3.917-10.268 0-14.185l-6.063-6.063 20.211 1.288c.217.014.433.021.648.021 5.248 0 9.661-4.081 10-9.393.351-5.529-3.845-10.295-9.373-10.648zm-45.122-12.252c1.096-1.096 2.595-1.751 4.112-1.799.76-.017 2.225.101 3.33 1.205v.001c1.104 1.104 1.228 2.559 1.204 3.329-.048 1.517-.703 3.017-1.799 4.113-.897.896-2.212 2.22-3.615 3.634-1.345-1.334-5.457-5.433-6.873-6.842zM108.66 366.36c-10.322 0-20.026 4.02-27.325 11.318-15.067 15.067-15.067 39.583 0 54.65 7.299 7.298 17.003 11.318 27.325 11.318s20.026-4.02 27.325-11.318c15.067-15.067 15.067-39.583 0-54.65-7.299-7.298-17.003-11.318-27.325-11.318zm13.139 51.782c-3.51 3.511-8.176 5.443-13.14 5.443s-9.63-1.933-13.14-5.443c-7.245-7.245-7.245-19.034 0-26.279 3.51-3.511 8.176-5.443 13.14-5.443s9.63 1.933 13.14 5.443c7.246 7.246 7.246 19.034 0 26.279z" fill="#000000" opacity="1" data-original="#000000" class=""></path></g></svg>