<svg xmlns="http://www.w3.org/2000/svg" version="1.1" xmlns:xlink="http://www.w3.org/1999/xlink" x="0" y="0" viewBox="0 0 512 512" style="enable-background:new 0 0 512 512" xml:space="preserve" class="w"><g><path fill="#f2d1a5" fill-rule="evenodd" d="m250.031 18.473-149.288 86.191c-4.545 2.625-7.147 7.131-7.147 12.379v172.383c0 5.249 2.602 9.755 7.147 12.379l149.288 86.191c4.546 2.624 9.748 2.624 14.294 0l149.288-86.191c4.546-2.624 7.147-7.131 7.147-12.379V117.043c0-5.248-2.602-9.755-7.147-12.379L264.325 18.473c-4.545-2.624-9.748-2.624-14.294 0z" clip-rule="evenodd" opacity="1" data-original="#f2d1a5" class=""></path><path fill="#e3a76f" fill-rule="evenodd" d="m250.031 18.473-149.288 86.191c-2.273 1.312-4.06 3.095-5.278 5.206l161.713 93.365 161.713-93.365c-1.219-2.111-3.005-3.894-5.278-5.206L264.325 18.473c-4.545-2.624-9.748-2.624-14.294 0z" clip-rule="evenodd" opacity="1" data-original="#e3a76f" class=""></path><path fill="#ecba78" fill-rule="evenodd" d="M95.465 109.87c-1.218 2.111-1.869 4.549-1.869 7.173v172.383c0 5.248 2.602 9.755 7.147 12.379l149.288 86.191c2.273 1.312 4.71 1.968 7.147 1.968v-186.73z" clip-rule="evenodd" opacity="1" data-original="#ecba78" class=""></path><path fill="#c48958" fill-rule="evenodd" d="m362.689 142.318-47.439 27.389-163.582-94.444 47.439-27.389z" clip-rule="evenodd" opacity="1" data-original="#c48958" class=""></path><path fill="#e3a76f" fill-rule="evenodd" d="m325.971 237.898 29.57-17.072c4.545-2.624 7.147-7.13 7.147-12.379v-66.128l-47.439 27.389v62.001c0 2.624 1.301 4.877 3.574 6.189s4.875 1.312 7.148 0z" clip-rule="evenodd" opacity="1" data-original="#e3a76f" class=""></path><path fill="#8ac9fe" fill-rule="evenodd" d="M329.057 478.367c-76.294 28.261-156.885 22.387-225.021-9.914l-5.968 19.139a2.995 2.995 0 0 1-4.863 1.345C66.938 465.462 32.177 417.613 29.4 375.098c-.245-3.748 3.542-6.409 6.986-4.909 23.922 10.415 57.507 14.727 89.548 15.048a2.99 2.99 0 0 1 2.834 3.892l-7.33 23.509c72.053 36.06 163.553 38.006 241.117 9.274 38.697-14.334 72.827-35.046 101.262-60.071 3.478-3.061 8.538 1.359 5.975 5.216-32.778 49.357-80.922 89.154-140.735 111.31z" clip-rule="evenodd" opacity="1" data-original="#8ac9fe" class=""></path><path fill="#60b7ff" fill-rule="evenodd" d="M329.057 478.367c-76.294 28.261-156.885 22.387-225.021-9.914l-5.968 19.139a2.995 2.995 0 0 1-4.863 1.345c-3.834-3.426-7.848-7.375-11.918-11.746.643.594 1.284 1.18 1.917 1.746a2.994 2.994 0 0 0 4.862-1.345l5.968-19.139c68.136 32.301 148.727 38.175 225.021 9.914 51.611-19.118 94.532-51.371 126.393-91.566a310.775 310.775 0 0 0 18.368-14.958c3.478-3.061 8.538 1.359 5.975 5.216-32.777 49.355-80.921 89.152-140.734 111.308zm-212.131-93.325-6.932 22.232a253.226 253.226 0 0 0 11.446 5.365l7.33-23.509a2.99 2.99 0 0 0-2.834-3.892c-2.993-.03-5.999-.095-9.01-.196z" clip-rule="evenodd" opacity="1" data-original="#60b7ff" class=""></path><path fill="#242222" fill-rule="evenodd" d="m255.998 25.283 142.882 84.079-40.55 23.859-142.882-84.079zm8.001 350.187 142.647-83.947V123.351l-40.319 23.732v68.96a8.002 8.002 0 0 1-3.94 6.891l-46.01 27.079a8.037 8.037 0 0 1-8.03.052 8.027 8.027 0 0 1-4.029-6.952v-59.542l-40.319 23.732zm32.549-205.888L153.665 85.503l-40.545 23.859 142.878 84.079zm53.78-13.081v54.962l-30.011 17.66v-54.962zm-38.012 3.804 30.242-17.792-142.883-84.089-30.237 17.797zm-206.967-36.954v168.172L248 375.47V207.303zM93.286 302.994l158.655 93.356a7.944 7.944 0 0 0 4.057 1.111c1.398 0 2.81-.367 4.062-1.111l158.646-93.356a8.008 8.008 0 0 0 3.944-6.9V109.362a7.993 7.993 0 0 0-3.944-6.891L260.06 9.101a8.03 8.03 0 0 0-8.119 0l-158.655 93.37a7.996 7.996 0 0 0-3.935 6.891v186.731a8.01 8.01 0 0 0 3.935 6.901zm231.813 167.367c-71.85 26.613-149.561 23.191-218.813-9.639a7.96 7.96 0 0 0-3.426-.772 7.915 7.915 0 0 0-3.21.673 8.006 8.006 0 0 0-4.429 4.942l-3.591 11.508c-23.172-22.889-50.51-62.611-54.962-98.134 26.123 10.143 58.492 13.043 81.302 13.664l-5.352 17.147a8.028 8.028 0 0 0 4.062 9.541c35.979 17.999 78.096 28.303 121.8 29.771 42.729 1.44 86.188-5.531 125.678-20.15 28.543-10.572 55.362-24.88 79.514-42.282-31.283 37.523-72.002 66.48-118.573 83.731zm163.48-136.241a7.993 7.993 0 0 1 2.457 10.242c-34.238 65.299-91.2 115.37-160.377 140.999C297.207 497.75 262.517 504 227.319 504c-5.13 0-10.271-.127-15.42-.4-36.05-1.859-71.022-10.129-104.102-24.608l-4.627 14.85a8.05 8.05 0 0 1-5.38 5.29 8.04 8.04 0 0 1-7.39-1.53C60.069 472.279 18.211 414.7 20.108 365.941a8.034 8.034 0 0 1 4.02-6.642 8 8 0 0 1 7.761-.099c20.809 11.169 56.139 17.547 96.91 17.547a7.98 7.98 0 0 1 6.439 3.262 7.984 7.984 0 0 1 1.2 7.121l-6.491 20.795c67.139 31.212 154.051 33.612 228.651 5.973 46.038-17.048 87.36-44.268 119.508-78.708a7.996 7.996 0 0 1 10.473-1.07z" clip-rule="evenodd" opacity="1" data-original="#242222" class=""></path></g></svg>